<svg width="282" height="201" viewBox="0 0 282 201" fill="none" xmlns="http://www.w3.org/2000/svg">
<g clip-path="url(#clip0)">
<path d="M13.0108 40.9247C15.4882 40.9247 17.4965 38.9164 17.4965 36.439C17.4965 33.9616 15.4882 31.9533 13.0108 31.9533C10.5335 31.9533 8.52515 33.9616 8.52515 36.439C8.52515 38.9164 10.5335 40.9247 13.0108 40.9247Z" fill="#E6E6E6"/>
<path d="M26.4679 40.9247C28.9452 40.9247 30.9535 38.9164 30.9535 36.439C30.9535 33.9616 28.9452 31.9533 26.4679 31.9533C23.9905 31.9533 21.9822 33.9616 21.9822 36.439C21.9822 38.9164 23.9905 40.9247 26.4679 40.9247Z" fill="#E6E6E6"/>
<path d="M39.9249 40.9247C42.4023 40.9247 44.4106 38.9164 44.4106 36.439C44.4106 33.9616 42.4023 31.9533 39.9249 31.9533C37.4475 31.9533 35.4392 33.9616 35.4392 36.439C35.4392 38.9164 37.4475 40.9247 39.9249 40.9247Z" fill="#E6E6E6"/>
<path d="M53.3819 40.9247C55.8593 40.9247 57.8676 38.9164 57.8676 36.439C57.8676 33.9616 55.8593 31.9533 53.3819 31.9533C50.9045 31.9533 48.8962 33.9616 48.8962 36.439C48.8962 38.9164 50.9045 40.9247 53.3819 40.9247Z" fill="#E6E6E6"/>
<path d="M66.8391 40.9247C69.3165 40.9247 71.3248 38.9164 71.3248 36.439C71.3248 33.9616 69.3165 31.9533 66.8391 31.9533C64.3617 31.9533 62.3534 33.9616 62.3534 36.439C62.3534 38.9164 64.3617 40.9247 66.8391 40.9247Z" fill="#E6E6E6"/>
<path d="M80.2961 40.9247C82.7735 40.9247 84.7818 38.9164 84.7818 36.439C84.7818 33.9616 82.7735 31.9533 80.2961 31.9533C77.8187 31.9533 75.8104 33.9616 75.8104 36.439C75.8104 38.9164 77.8187 40.9247 80.2961 40.9247Z" fill="#E6E6E6"/>
<path d="M93.7531 40.9247C96.2305 40.9247 98.2388 38.9164 98.2388 36.439C98.2388 33.9616 96.2305 31.9533 93.7531 31.9533C91.2758 31.9533 89.2675 33.9616 89.2675 36.439C89.2675 38.9164 91.2758 40.9247 93.7531 40.9247Z" fill="#E6E6E6"/>
<path d="M104.119 41.9015H2.64532C2.16136 41.901 1.69738 41.7085 1.35517 41.3662C1.01296 41.024 0.820454 40.5601 0.819885 40.0761V32.802C0.820453 32.318 1.01296 31.854 1.35517 31.5118C1.69738 31.1696 2.16136 30.9771 2.64532 30.9765H104.119C104.603 30.9771 105.067 31.1696 105.409 31.5118C105.751 31.854 105.944 32.318 105.944 32.802V40.0761C105.944 40.5601 105.751 41.024 105.409 41.3662C105.067 41.7085 104.603 41.901 104.119 41.9015ZM2.64532 31.7067C2.35494 31.707 2.07654 31.8225 1.8712 32.0279C1.66587 32.2332 1.55038 32.5116 1.55006 32.802V40.0761C1.55038 40.3665 1.66587 40.6449 1.8712 40.8502C2.07654 41.0555 2.35494 41.171 2.64532 41.1714H104.119C104.409 41.171 104.687 41.0555 104.893 40.8502C105.098 40.6449 105.214 40.3665 105.214 40.0761V32.802C105.214 32.5116 105.098 32.2332 104.893 32.0279C104.687 31.8225 104.409 31.707 104.119 31.7067L2.64532 31.7067Z" fill="#E6E6E6"/>
<path d="M24.3612 1.04882C24.6393 1.04914 24.9059 1.15974 25.1025 1.35637C25.2991 1.55299 25.4097 1.81957 25.4101 2.09763V24.8254C25.4097 25.1035 25.2991 25.3701 25.1025 25.5667C24.9059 25.7633 24.6393 25.8739 24.3612 25.8743H2.09766C1.81959 25.8739 1.55301 25.7633 1.35639 25.5667C1.15977 25.3701 1.04916 25.1035 1.04884 24.8254V2.09765C1.04916 1.81959 1.15977 1.553 1.35639 1.35638C1.55301 1.15976 1.81959 1.04916 2.09766 1.04884H24.3612V1.04882ZM24.3612 1.50645e-05H2.09766C1.54133 1.50645e-05 1.00778 0.221016 0.614392 0.614402C0.221006 1.00779 0 1.54134 0 2.09767V24.8254C0 25.3818 0.221006 25.9153 0.614392 26.3087C1.00778 26.7021 1.54133 26.9231 2.09766 26.9231H24.3612C24.9176 26.9231 25.4511 26.7021 25.8445 26.3087C26.2379 25.9153 26.4589 25.3818 26.4589 24.8254V2.09765C26.4589 1.54132 26.2379 1.00777 25.8445 0.614387C25.4511 0.221001 24.9176 8.72798e-07 24.3612 0V1.50645e-05Z" fill="#E6E6E6"/>
<path d="M20.8886 7.02297H6.03447C5.96533 7.02339 5.89679 7.01015 5.8328 6.98398C5.7688 6.95782 5.71061 6.91926 5.66157 6.87052C5.61254 6.82178 5.57362 6.76383 5.54706 6.7C5.52051 6.63616 5.50684 6.56771 5.50684 6.49857C5.50684 6.42943 5.52051 6.36097 5.54706 6.29714C5.57362 6.23331 5.61254 6.17535 5.66157 6.12661C5.71061 6.07788 5.7688 6.03932 5.8328 6.01315C5.89679 5.98699 5.96533 5.97374 6.03447 5.97416H20.8886C20.9577 5.97374 21.0262 5.98699 21.0902 6.01315C21.1542 6.03932 21.2124 6.07788 21.2615 6.12661C21.3105 6.17535 21.3494 6.23331 21.376 6.29714C21.4025 6.36097 21.4162 6.42943 21.4162 6.49857C21.4162 6.56771 21.4025 6.63616 21.376 6.7C21.3494 6.76383 21.3105 6.82178 21.2615 6.87052C21.2124 6.91926 21.1542 6.95782 21.0902 6.98398C21.0262 7.01015 20.9577 7.02339 20.8886 7.02297Z" fill="#3549FB"/>
<path d="M20.8886 10.7366H6.03447C5.96533 10.737 5.89679 10.7238 5.8328 10.6976C5.7688 10.6715 5.71061 10.6329 5.66157 10.5842C5.61254 10.5354 5.57362 10.4775 5.54706 10.4136C5.52051 10.3498 5.50684 10.2814 5.50684 10.2122C5.50684 10.1431 5.52051 10.0746 5.54706 10.0108C5.57362 9.94695 5.61254 9.88901 5.66157 9.84027C5.71061 9.79153 5.7688 9.75297 5.8328 9.72681C5.89679 9.70064 5.96533 9.68739 6.03447 9.68782H20.8886C20.9577 9.68739 21.0262 9.70064 21.0902 9.72681C21.1542 9.75297 21.2124 9.79153 21.2615 9.84027C21.3105 9.88901 21.3494 9.94695 21.376 10.0108C21.4025 10.0746 21.4162 10.1431 21.4162 10.2122C21.4162 10.2814 21.4025 10.3498 21.376 10.4136C21.3494 10.4775 21.3105 10.5354 21.2615 10.5842C21.2124 10.6329 21.1542 10.6715 21.0902 10.6976C21.0262 10.7238 20.9577 10.737 20.8886 10.7366Z" fill="#3549FB"/>
<path d="M20.8886 14.45H6.03447C5.96533 14.4505 5.89679 14.4372 5.8328 14.411C5.7688 14.3849 5.71061 14.3463 5.66157 14.2976C5.61254 14.2488 5.57362 14.1909 5.54706 14.1271C5.52051 14.0632 5.50684 13.9948 5.50684 13.9256C5.50684 13.8565 5.52051 13.788 5.54706 13.7242C5.57362 13.6604 5.61254 13.6024 5.66157 13.5537C5.71061 13.5049 5.7688 13.4664 5.8328 13.4402C5.89679 13.414 5.96533 13.4008 6.03447 13.4012H20.8886C20.9577 13.4008 21.0262 13.414 21.0902 13.4402C21.1542 13.4664 21.2124 13.5049 21.2615 13.5537C21.3105 13.6024 21.3494 13.6604 21.376 13.7242C21.4025 13.788 21.4162 13.8565 21.4162 13.9256C21.4162 13.9948 21.4025 14.0632 21.376 14.1271C21.3494 14.1909 21.3105 14.2488 21.2615 14.2976C21.2124 14.3463 21.1542 14.3849 21.0902 14.411C21.0262 14.4372 20.9577 14.4505 20.8886 14.45Z" fill="#3549FB"/>
<path d="M20.8886 18.1637H6.03447C5.96533 18.1641 5.89679 18.1509 5.8328 18.1247C5.7688 18.0985 5.71061 18.06 5.66157 18.0112C5.61254 17.9625 5.57362 17.9045 5.54706 17.8407C5.52051 17.7769 5.50684 17.7084 5.50684 17.6393C5.50684 17.5701 5.52051 17.5017 5.54706 17.4379C5.57362 17.374 5.61254 17.3161 5.66157 17.2673C5.71061 17.2186 5.7688 17.18 5.8328 17.1539C5.89679 17.1277 5.96533 17.1145 6.03447 17.1149H20.8886C20.9577 17.1145 21.0262 17.1277 21.0902 17.1539C21.1542 17.18 21.2124 17.2186 21.2615 17.2673C21.3105 17.3161 21.3494 17.374 21.376 17.4379C21.4025 17.5017 21.4162 17.5701 21.4162 17.6393C21.4162 17.7084 21.4025 17.7769 21.376 17.8407C21.3494 17.9045 21.3105 17.9625 21.2615 18.0112C21.2124 18.06 21.1542 18.0985 21.0902 18.1247C21.0262 18.1509 20.9577 18.1641 20.8886 18.1637Z" fill="#3549FB"/>
<path d="M20.8886 21.8774H6.03454C5.89546 21.8774 5.76207 21.8221 5.66372 21.7238C5.56538 21.6254 5.51013 21.492 5.51013 21.3529C5.51013 21.2139 5.56538 21.0805 5.66372 20.9821C5.76207 20.8838 5.89546 20.8285 6.03454 20.8285H20.8886C21.0277 20.8285 21.1611 20.8838 21.2595 20.9821C21.3578 21.0805 21.4131 21.2139 21.4131 21.3529C21.4131 21.492 21.3578 21.6254 21.2595 21.7238C21.1611 21.8221 21.0277 21.8774 20.8886 21.8774Z" fill="#3549FB"/>
<path d="M100.401 1.04882C100.679 1.04914 100.946 1.15974 101.142 1.35637C101.339 1.55299 101.45 1.81957 101.45 2.09763V24.8254C101.45 25.1035 101.339 25.3701 101.142 25.5667C100.946 25.7633 100.679 25.8739 100.401 25.8743H78.1376C77.8595 25.8739 77.5929 25.7633 77.3963 25.5667C77.1997 25.3701 77.0891 25.1035 77.0888 24.8254V2.09765C77.0891 1.81959 77.1997 1.553 77.3963 1.35638C77.5929 1.15976 77.8595 1.04916 78.1376 1.04884H100.401V1.04882ZM100.401 1.50645e-05H78.1376C77.5812 1.50645e-05 77.0477 0.221016 76.6543 0.614402C76.2609 1.00779 76.0399 1.54134 76.0399 2.09767V24.8254C76.0399 25.3818 76.2609 25.9153 76.6543 26.3087C77.0477 26.7021 77.5812 26.9231 78.1376 26.9231H100.401C100.957 26.9231 101.491 26.7021 101.884 26.3087C102.278 25.9153 102.499 25.3818 102.499 24.8254V2.09765C102.499 1.54132 102.278 1.00777 101.884 0.614387C101.491 0.221001 100.957 0 100.401 0V1.50645e-05Z" fill="#E6E6E6"/>
<path d="M96.9285 7.02297H82.0744C82.0052 7.02339 81.9367 7.01015 81.8727 6.98398C81.8087 6.95782 81.7505 6.91926 81.7015 6.87052C81.6524 6.82178 81.6135 6.76383 81.587 6.7C81.5604 6.63616 81.5468 6.56771 81.5468 6.49857C81.5468 6.42943 81.5604 6.36097 81.587 6.29714C81.6135 6.23331 81.6524 6.17535 81.7015 6.12661C81.7505 6.07788 81.8087 6.03932 81.8727 6.01315C81.9367 5.98699 82.0052 5.97374 82.0744 5.97416H96.9285C97.067 5.97501 97.1996 6.03064 97.2972 6.12889C97.3949 6.22714 97.4497 6.36004 97.4497 6.49857C97.4497 6.63709 97.3949 6.76999 97.2972 6.86824C97.1996 6.96649 97.067 7.02212 96.9285 7.02297H96.9285Z" fill="#3549FB"/>
<path d="M96.9285 10.7366H82.0744C82.0052 10.737 81.9367 10.7238 81.8727 10.6976C81.8087 10.6715 81.7505 10.6329 81.7015 10.5842C81.6524 10.5354 81.6135 10.4775 81.587 10.4136C81.5604 10.3498 81.5468 10.2814 81.5468 10.2122C81.5468 10.1431 81.5604 10.0746 81.587 10.0108C81.6135 9.94695 81.6524 9.88901 81.7015 9.84027C81.7505 9.79153 81.8087 9.75297 81.8727 9.72681C81.9367 9.70064 82.0052 9.68739 82.0744 9.68782H96.9285C97.067 9.68867 97.1996 9.74429 97.2972 9.84254C97.3949 9.9408 97.4497 10.0737 97.4497 10.2122C97.4497 10.3507 97.3949 10.4836 97.2972 10.5819C97.1996 10.6801 97.067 10.7358 96.9285 10.7366H96.9285Z" fill="#3549FB"/>
<path d="M96.9285 14.45H82.0744C82.0052 14.4505 81.9367 14.4372 81.8727 14.411C81.8087 14.3849 81.7505 14.3463 81.7015 14.2976C81.6524 14.2488 81.6135 14.1909 81.587 14.1271C81.5604 14.0632 81.5468 13.9948 81.5468 13.9256C81.5468 13.8565 81.5604 13.788 81.587 13.7242C81.6135 13.6604 81.6524 13.6024 81.7015 13.5537C81.7505 13.5049 81.8087 13.4664 81.8727 13.4402C81.9367 13.414 82.0052 13.4008 82.0744 13.4012H96.9285C97.067 13.4021 97.1996 13.4577 97.2972 13.5559C97.3949 13.6542 97.4497 13.7871 97.4497 13.9256C97.4497 14.0642 97.3949 14.1971 97.2972 14.2953C97.1996 14.3936 97.067 14.4492 96.9285 14.45H96.9285Z" fill="#3549FB"/>
<path d="M96.9285 18.1637H82.0744C82.0052 18.1641 81.9367 18.1509 81.8727 18.1247C81.8087 18.0985 81.7505 18.06 81.7015 18.0112C81.6524 17.9625 81.6135 17.9045 81.587 17.8407C81.5604 17.7769 81.5468 17.7084 81.5468 17.6393C81.5468 17.5701 81.5604 17.5017 81.587 17.4379C81.6135 17.374 81.6524 17.3161 81.7015 17.2673C81.7505 17.2186 81.8087 17.18 81.8727 17.1539C81.9367 17.1277 82.0052 17.1145 82.0744 17.1149H96.9285C97.067 17.1157 97.1996 17.1714 97.2972 17.2696C97.3949 17.3679 97.4497 17.5008 97.4497 17.6393C97.4497 17.7778 97.3949 17.9107 97.2972 18.009C97.1996 18.1072 97.067 18.1628 96.9285 18.1637H96.9285Z" fill="#3549FB"/>
<path d="M96.9286 21.8774H82.0745C81.9354 21.8774 81.802 21.8221 81.7036 21.7238C81.6053 21.6254 81.55 21.492 81.55 21.3529C81.55 21.2139 81.6053 21.0805 81.7036 20.9821C81.802 20.8838 81.9354 20.8285 82.0745 20.8285H96.9286C97.0677 20.8285 97.201 20.8838 97.2994 20.9821C97.3977 21.0805 97.453 21.2139 97.453 21.3529C97.453 21.492 97.3977 21.6254 97.2994 21.7238C97.201 21.8221 97.0677 21.8774 96.9286 21.8774H96.9286Z" fill="#3549FB"/>
<path d="M176.072 44.7491C176.35 44.7495 176.616 44.8601 176.813 45.0567C177.01 45.2533 177.12 45.5199 177.121 45.798V68.5257C177.12 68.8038 177.01 69.0704 176.813 69.267C176.616 69.4636 176.35 69.5742 176.072 69.5745H153.808C153.53 69.5742 153.263 69.4636 153.067 69.267C152.87 69.0704 152.76 68.8038 152.759 68.5257V45.798C152.76 45.5199 152.87 45.2533 153.067 45.0567C153.263 44.8601 153.53 44.7495 153.808 44.7492H176.072V44.7491ZM176.072 43.7003H153.808C153.252 43.7003 152.718 43.9214 152.325 44.3147C151.931 44.7081 151.71 45.2417 151.71 45.798V68.5258C151.71 69.0821 151.931 69.6157 152.325 70.0091C152.718 70.4024 153.252 70.6234 153.808 70.6234H176.072C176.628 70.6234 177.162 70.4024 177.555 70.0091C177.948 69.6157 178.169 69.0821 178.169 68.5258V45.798C178.169 45.2416 177.948 44.7081 177.555 44.3147C177.162 43.9213 176.628 43.7003 176.072 43.7003V43.7003Z" fill="#3549FB"/>
<path d="M172.599 50.7233H157.745C157.676 50.7237 157.607 50.7104 157.543 50.6843C157.479 50.6581 157.421 50.6195 157.372 50.5708C157.323 50.5221 157.284 50.4641 157.258 50.4003C157.231 50.3365 157.217 50.268 157.217 50.1989C157.217 50.1297 157.231 50.0613 157.258 49.9974C157.284 49.9336 157.323 49.8756 157.372 49.8269C157.421 49.7782 157.479 49.7396 157.543 49.7134C157.607 49.6873 157.676 49.674 157.745 49.6744H172.599C172.738 49.6753 172.87 49.7309 172.968 49.8292C173.065 49.9274 173.12 50.0603 173.12 50.1989C173.12 50.3374 173.065 50.4703 172.968 50.5685C172.87 50.6668 172.738 50.7224 172.599 50.7233Z" fill="#3549FB"/>
<path d="M172.599 54.4369H157.745C157.606 54.4369 157.473 54.3817 157.374 54.2833C157.276 54.185 157.221 54.0516 157.221 53.9125C157.221 53.7734 157.276 53.64 157.374 53.5417C157.473 53.4433 157.606 53.3881 157.745 53.3881H172.599C172.738 53.3881 172.872 53.4433 172.97 53.5417C173.068 53.64 173.124 53.7734 173.124 53.9125C173.124 54.0516 173.068 54.185 172.97 54.2833C172.872 54.3817 172.738 54.4369 172.599 54.4369Z" fill="#3549FB"/>
<path d="M172.599 58.1503H157.745C157.676 58.1507 157.607 58.1374 157.543 58.1112C157.48 58.085 157.421 58.0464 157.372 57.9977C157.323 57.9489 157.285 57.891 157.258 57.8272C157.232 57.7634 157.218 57.695 157.218 57.6259C157.218 57.5568 157.232 57.4884 157.258 57.4247C157.285 57.3609 157.323 57.3029 157.372 57.2542C157.421 57.2055 157.48 57.1669 157.543 57.1407C157.607 57.1145 157.676 57.1012 157.745 57.1015H172.599C172.738 57.1024 172.87 57.158 172.968 57.2563C173.065 57.3545 173.12 57.4874 173.12 57.6259C173.12 57.7645 173.065 57.8974 172.968 57.9956C172.87 58.0939 172.738 58.1495 172.599 58.1503Z" fill="#3549FB"/>
<path d="M172.599 61.864H157.745C157.676 61.8644 157.607 61.8512 157.543 61.825C157.479 61.7988 157.421 61.7603 157.372 61.7115C157.323 61.6628 157.284 61.6049 157.258 61.541C157.231 61.4772 157.217 61.4087 157.217 61.3396C157.217 61.2705 157.231 61.202 157.258 61.1382C157.284 61.0743 157.323 61.0164 157.372 60.9676C157.421 60.9189 157.479 60.8803 157.543 60.8542C157.607 60.828 157.676 60.8148 157.745 60.8152H172.599C172.738 60.816 172.87 60.8717 172.968 60.9699C173.065 61.0682 173.12 61.2011 173.12 61.3396C173.12 61.4781 173.065 61.611 172.968 61.7093C172.87 61.8075 172.738 61.8631 172.599 61.864Z" fill="#3549FB"/>
<path d="M172.599 65.5776H157.745C157.676 65.578 157.607 65.5648 157.543 65.5386C157.479 65.5125 157.421 65.4739 157.372 65.4252C157.323 65.3764 157.284 65.3185 157.258 65.2546C157.231 65.1908 157.217 65.1224 157.217 65.0532C157.217 64.9841 157.231 64.9156 157.258 64.8518C157.284 64.788 157.323 64.73 157.372 64.6813C157.421 64.6325 157.479 64.594 157.543 64.5678C157.607 64.5416 157.676 64.5284 157.745 64.5288H172.599C172.738 64.5297 172.87 64.5853 172.968 64.6835C173.065 64.7818 173.12 64.9147 173.12 65.0532C173.12 65.1918 173.065 65.3246 172.968 65.4229C172.87 65.5212 172.738 65.5768 172.599 65.5776Z" fill="#3549FB"/>
<path d="M62.6726 26.9231H39.826C39.2082 26.9224 38.6159 26.6766 38.179 26.2397C37.7421 25.8029 37.4963 25.2105 37.4956 24.5927V8.24473C37.4963 7.62685 37.742 7.03446 38.1789 6.59753C38.6158 6.1606 39.2081 5.9148 39.826 5.91406H62.6726C63.2905 5.91474 63.8829 6.16051 64.3198 6.59745C64.7568 7.03439 65.0026 7.62681 65.0032 8.24473V24.5927C65.0025 25.2106 64.7567 25.8029 64.3198 26.2398C63.8828 26.6767 63.2904 26.9224 62.6726 26.9231ZM39.826 6.96289C39.4862 6.96331 39.1604 7.0985 38.9202 7.33881C38.6799 7.57912 38.5448 7.90491 38.5444 8.24473V24.5927C38.5448 24.9325 38.6799 25.2582 38.9202 25.4985C39.1605 25.7388 39.4862 25.8739 39.826 25.8743H62.6726C63.0124 25.8739 63.3382 25.7388 63.5785 25.4985C63.8188 25.2583 63.954 24.9325 63.9544 24.5927V8.24473C63.954 7.90489 63.8188 7.57909 63.5785 7.33879C63.3382 7.09848 63.0124 6.9633 62.6726 6.96289H39.826Z" fill="#E6E6E6"/>
<path d="M58.6765 13.2295H43.8224C43.6838 13.2286 43.5513 13.173 43.4536 13.0748C43.356 12.9765 43.3011 12.8436 43.3011 12.7051C43.3011 12.5666 43.356 12.4337 43.4536 12.3354C43.5513 12.2371 43.6838 12.1815 43.8224 12.1807H58.6765C58.7456 12.1802 58.8141 12.1935 58.8781 12.2197C58.9421 12.2458 59.0003 12.2844 59.0494 12.3331C59.0984 12.3819 59.1373 12.4398 59.1639 12.5037C59.1904 12.5675 59.2041 12.6359 59.2041 12.7051C59.2041 12.7742 59.1904 12.8427 59.1639 12.9065C59.1373 12.9703 59.0984 13.0283 59.0494 13.077C59.0003 13.1258 58.9421 13.1643 58.8781 13.1905C58.8141 13.2167 58.7456 13.2299 58.6765 13.2295Z" fill="#3549FB"/>
<path d="M58.6765 16.9431H43.8224C43.6838 16.9423 43.5513 16.8867 43.4536 16.7884C43.356 16.6902 43.3011 16.5573 43.3011 16.4187C43.3011 16.2802 43.356 16.1473 43.4536 16.0491C43.5513 15.9508 43.6838 15.8952 43.8224 15.8943H58.6765C58.7456 15.8939 58.8141 15.9072 58.8781 15.9333C58.9421 15.9595 59.0003 15.998 59.0494 16.0468C59.0984 16.0955 59.1373 16.1535 59.1639 16.2173C59.1904 16.2811 59.2041 16.3496 59.2041 16.4187C59.2041 16.4879 59.1904 16.5563 59.1639 16.6202C59.1373 16.684 59.0984 16.742 59.0494 16.7907C59.0003 16.8394 58.9421 16.878 58.8781 16.9041C58.8141 16.9303 58.7456 16.9436 58.6765 16.9431Z" fill="#3549FB"/>
<path d="M58.6765 20.6565H43.8224C43.6838 20.6556 43.5513 20.6 43.4536 20.5018C43.356 20.4035 43.3011 20.2706 43.3011 20.1321C43.3011 19.9936 43.356 19.8607 43.4536 19.7624C43.5513 19.6642 43.6838 19.6085 43.8224 19.6077H58.6765C58.7456 19.6073 58.8141 19.6205 58.8781 19.6467C58.9421 19.6728 59.0003 19.7114 59.0494 19.7601C59.0984 19.8089 59.1373 19.8668 59.1639 19.9306C59.1904 19.9945 59.2041 20.0629 59.2041 20.1321C59.2041 20.2012 59.1904 20.2697 59.1639 20.3335C59.1373 20.3973 59.0984 20.4553 59.0494 20.504C59.0003 20.5528 58.9421 20.5913 58.8781 20.6175C58.8141 20.6437 58.7456 20.6569 58.6765 20.6565Z" fill="#3549FB"/>
<path d="M138.481 35.982L116.539 29.6187C115.945 29.4459 115.445 29.0449 115.147 28.5036C114.849 27.9623 114.778 27.325 114.949 26.7314L119.503 11.0303C119.676 10.4371 120.077 9.9366 120.618 9.63864C121.159 9.34068 121.797 9.2696 122.39 9.44098L144.333 15.8043C144.926 15.9771 145.426 16.3781 145.724 16.9195C146.022 17.4608 146.093 18.0982 145.922 18.6919L141.369 34.393C141.196 34.9862 140.795 35.4866 140.253 35.7845C139.712 36.0824 139.075 36.1535 138.481 35.982ZM122.098 10.4483C121.772 10.3541 121.421 10.3932 121.123 10.5571C120.826 10.7209 120.605 10.9962 120.51 11.3225L115.957 27.0235C115.863 27.35 115.902 27.7005 116.065 27.9982C116.229 28.2958 116.504 28.5164 116.831 28.6114L138.773 34.9747C139.1 35.069 139.45 35.03 139.748 34.8661C140.046 34.7023 140.266 34.4271 140.361 34.1008L144.915 18.3998C145.009 18.0733 144.97 17.7227 144.806 17.425C144.642 17.1273 144.367 16.9067 144.04 16.8116L122.098 10.4483Z" fill="#E6E6E6"/>
<path d="M138.457 21.7172L124.191 17.58C124.058 17.5411 123.945 17.4508 123.878 17.329C123.811 17.2073 123.796 17.064 123.834 16.9306C123.873 16.7972 123.963 16.6846 124.085 16.6175C124.206 16.5504 124.349 16.5343 124.483 16.5727L138.749 20.7099C138.883 20.7487 138.996 20.8389 139.063 20.9607C139.13 21.0826 139.146 21.2261 139.107 21.3596C139.068 21.4932 138.978 21.6059 138.856 21.673C138.734 21.7401 138.591 21.756 138.457 21.7172H138.457Z" fill="#3549FB"/>
<path d="M137.423 25.2839L123.157 21.1467C123.09 21.1275 123.029 21.0955 122.975 21.0524C122.921 21.0094 122.876 20.9562 122.843 20.8959C122.81 20.8355 122.789 20.7692 122.781 20.7008C122.774 20.6324 122.78 20.5631 122.799 20.4969C122.818 20.4308 122.85 20.3691 122.893 20.3153C122.936 20.2616 122.989 20.2168 123.05 20.1836C123.11 20.1504 123.176 20.1294 123.245 20.1218C123.313 20.1142 123.383 20.1202 123.449 20.1393L137.715 24.2766C137.848 24.3155 137.961 24.4058 138.028 24.5275C138.094 24.6493 138.11 24.7926 138.072 24.926C138.033 25.0594 137.943 25.172 137.821 25.2391C137.7 25.3062 137.556 25.3223 137.423 25.2839Z" fill="#3549FB"/>
<path d="M136.389 28.8504L122.122 24.7132C121.989 24.6742 121.876 24.5839 121.81 24.4622C121.743 24.3404 121.727 24.1971 121.766 24.0637C121.804 23.9303 121.894 23.8177 122.016 23.7506C122.138 23.6835 122.281 23.6674 122.414 23.7058L136.681 27.8431C136.814 27.8818 136.927 27.972 136.994 28.0939C137.061 28.2157 137.077 28.3592 137.038 28.4928C137 28.6264 136.909 28.7391 136.787 28.8061C136.666 28.8732 136.522 28.8891 136.389 28.8504Z" fill="#3549FB"/>
<path d="M281.509 200.013H51.3728V201H281.509V200.013Z" fill="#E6E6E6"/>
<path d="M184.995 198.469H147.571L148.839 181.978H183.726L184.995 198.469Z" fill="#E6E6E6"/>
<path d="M187.532 196.567H145.668V200.372H187.532V196.567Z" fill="#E6E6E6"/>
<path d="M237.958 75.7328H94.9241C93.9147 75.7328 92.9467 76.1337 92.233 76.8475C91.5192 77.5612 91.1183 78.5292 91.1183 79.5385V166.755H241.764V79.5385C241.764 79.0388 241.666 78.5439 241.474 78.0821C241.283 77.6204 241.003 77.2009 240.649 76.8475C240.296 76.4941 239.876 76.2137 239.415 76.0225C238.953 75.8312 238.458 75.7328 237.958 75.7328H237.958Z" fill="#3F3D56"/>
<path d="M91.1183 166.755V181.026C91.1183 181.526 91.2167 182.021 91.408 182.483C91.5992 182.944 91.8796 183.364 92.233 183.717C92.5864 184.071 93.0059 184.351 93.4677 184.542C93.9294 184.734 94.4243 184.832 94.9241 184.832H237.958C238.968 184.832 239.936 184.431 240.649 183.717C241.363 183.004 241.764 182.036 241.764 181.026V166.755H91.1183Z" fill="#E6E6E6"/>
<path d="M234.47 83.6615H98.7299V159.777H234.47V83.6615Z" fill="#E6E6E6"/>
<path d="M166.6 179.44C168.702 179.44 170.406 177.737 170.406 175.635C170.406 173.533 168.702 171.829 166.6 171.829C164.498 171.829 162.794 173.533 162.794 175.635C162.794 177.737 164.498 179.44 166.6 179.44Z" fill="#3F3D56"/>
<path d="M102.962 86.8764C103.361 86.8764 103.685 86.5531 103.685 86.1542C103.685 85.7553 103.361 85.4319 102.962 85.4319C102.563 85.4319 102.24 85.7553 102.24 86.1542C102.24 86.5531 102.563 86.8764 102.962 86.8764Z" fill="white"/>
<path d="M105.704 86.8764C106.103 86.8764 106.426 86.5531 106.426 86.1542C106.426 85.7553 106.103 85.4319 105.704 85.4319C105.305 85.4319 104.982 85.7553 104.982 86.1542C104.982 86.5531 105.305 86.8764 105.704 86.8764Z" fill="white"/>
<path d="M108.445 86.8764C108.844 86.8764 109.168 86.5531 109.168 86.1542C109.168 85.7553 108.844 85.4319 108.445 85.4319C108.046 85.4319 107.723 85.7553 107.723 86.1542C107.723 86.5531 108.046 86.8764 108.445 86.8764Z" fill="white"/>
<path d="M230.558 88.6084H102.24V152.533H230.558V88.6084Z" fill="white"/>
<path d="M110.77 98.3317C110.65 98.3318 110.534 98.3796 110.449 98.4647C110.364 98.5497 110.316 98.665 110.316 98.7853V121.715C110.316 121.835 110.364 121.95 110.449 122.036C110.534 122.121 110.65 122.168 110.77 122.169H137.25C137.37 122.168 137.485 122.121 137.57 122.036C137.655 121.95 137.703 121.835 137.703 121.715V98.7853C137.703 98.665 137.655 98.5497 137.57 98.4647C137.485 98.3796 137.37 98.3318 137.25 98.3317H110.77Z" fill="#E6E6E6"/>
<path d="M153.287 98.4054C153.166 98.4055 153.051 98.4533 152.966 98.5383C152.881 98.6234 152.833 98.7387 152.833 98.859V121.715C152.833 121.835 152.881 121.95 152.966 122.036C153.051 122.121 153.166 122.168 153.287 122.168H179.682C179.803 122.168 179.918 122.12 180.003 122.035C180.088 121.95 180.136 121.835 180.136 121.715V98.859C180.136 98.7388 180.088 98.6235 180.003 98.5384C179.918 98.4534 179.803 98.4055 179.682 98.4054H153.287Z" fill="#E6E6E6"/>
<path d="M195.358 98.1658C195.238 98.166 195.122 98.2138 195.037 98.2988C194.952 98.3839 194.905 98.4992 194.904 98.6194V121.715C194.905 121.835 194.952 121.95 195.037 122.035C195.122 122.12 195.238 122.168 195.358 122.168H222.028C222.148 122.168 222.264 122.12 222.349 122.035C222.434 121.95 222.481 121.835 222.481 121.715V98.6194C222.481 98.4992 222.434 98.3839 222.349 98.2988C222.264 98.2138 222.148 98.166 222.028 98.1658H195.358Z" fill="#E6E6E6"/>
<path d="M111.254 133.519C111.005 133.519 110.767 133.618 110.592 133.794C110.416 133.97 110.318 134.208 110.318 134.456C110.318 134.705 110.416 134.943 110.592 135.119C110.767 135.295 111.005 135.394 111.254 135.394H136.15C136.399 135.394 136.637 135.295 136.812 135.119C136.988 134.943 137.086 134.705 137.086 134.456C137.086 134.208 136.988 133.97 136.812 133.794C136.637 133.618 136.399 133.519 136.15 133.519H111.254Z" fill="#E6E6E6"/>
<path d="M111.254 137.98C111.005 137.98 110.767 138.079 110.592 138.255C110.416 138.431 110.318 138.669 110.318 138.918C110.318 139.166 110.416 139.404 110.592 139.58C110.767 139.756 111.005 139.855 111.254 139.855H122.463C122.712 139.855 122.95 139.756 123.125 139.58C123.301 139.404 123.4 139.166 123.4 138.918C123.4 138.669 123.301 138.431 123.125 138.255C122.95 138.079 122.712 137.98 122.463 137.98H111.254Z" fill="#3549FB"/>
<path d="M154.228 133.519C153.979 133.519 153.741 133.618 153.566 133.794C153.39 133.97 153.292 134.208 153.292 134.456C153.292 134.705 153.39 134.943 153.566 135.119C153.741 135.295 153.979 135.394 154.228 135.394H179.124C179.373 135.394 179.611 135.295 179.786 135.119C179.962 134.943 180.06 134.705 180.06 134.456C180.06 134.208 179.962 133.97 179.786 133.794C179.611 133.618 179.373 133.519 179.124 133.519H154.228Z" fill="#E6E6E6"/>
<path d="M154.228 137.98C153.979 137.98 153.741 138.079 153.566 138.255C153.39 138.431 153.292 138.669 153.292 138.918C153.292 139.166 153.39 139.404 153.566 139.58C153.741 139.756 153.979 139.855 154.228 139.855H165.437C165.686 139.855 165.924 139.756 166.099 139.58C166.275 139.404 166.373 139.166 166.373 138.918C166.373 138.669 166.275 138.431 166.099 138.255C165.924 138.079 165.686 137.98 165.437 137.98H154.228Z" fill="#3549FB"/>
<path d="M196.128 133.519C195.879 133.519 195.641 133.618 195.465 133.794C195.29 133.97 195.191 134.208 195.191 134.456C195.191 134.705 195.29 134.943 195.465 135.119C195.641 135.295 195.879 135.394 196.128 135.394H221.024C221.272 135.394 221.51 135.295 221.686 135.119C221.861 134.943 221.96 134.705 221.96 134.456C221.96 134.208 221.861 133.97 221.686 133.794C221.51 133.618 221.272 133.519 221.024 133.519H196.128Z" fill="#E6E6E6"/>
<path d="M111.254 128.911C111.005 128.912 110.767 129.011 110.592 129.187C110.416 129.362 110.318 129.601 110.318 129.849C110.318 130.098 110.416 130.336 110.592 130.512C110.767 130.688 111.005 130.787 111.254 130.787H136.15C136.399 130.787 136.637 130.688 136.812 130.512C136.988 130.336 137.086 130.098 137.086 129.849C137.086 129.601 136.988 129.362 136.812 129.187C136.637 129.011 136.399 128.912 136.15 128.911H111.254Z" fill="#E6E6E6"/>
<path d="M154.228 128.911C153.979 128.912 153.741 129.011 153.566 129.187C153.39 129.362 153.292 129.601 153.292 129.849C153.292 130.098 153.39 130.336 153.566 130.512C153.741 130.688 153.979 130.787 154.228 130.787H179.124C179.373 130.787 179.611 130.688 179.786 130.512C179.962 130.336 180.06 130.098 180.06 129.849C180.06 129.601 179.962 129.362 179.786 129.187C179.611 129.011 179.373 128.912 179.124 128.911H154.228Z" fill="#E6E6E6"/>
<path d="M196.128 128.911C195.879 128.912 195.641 129.011 195.465 129.187C195.29 129.362 195.191 129.601 195.191 129.849C195.191 130.098 195.29 130.336 195.465 130.512C195.641 130.688 195.879 130.787 196.128 130.787H221.024C221.272 130.787 221.51 130.688 221.686 130.512C221.861 130.336 221.96 130.098 221.96 129.849C221.96 129.601 221.861 129.362 221.686 129.187C221.51 129.011 221.272 128.912 221.024 128.911H196.128Z" fill="#E6E6E6"/>
<path d="M196.128 137.98C195.879 137.98 195.641 138.079 195.466 138.255C195.29 138.431 195.191 138.669 195.191 138.918C195.191 139.166 195.29 139.404 195.466 139.58C195.641 139.756 195.879 139.855 196.128 139.855H207.337C207.585 139.855 207.823 139.756 207.999 139.58C208.175 139.404 208.273 139.166 208.273 138.918C208.273 138.669 208.175 138.431 207.999 138.255C207.823 138.079 207.585 137.98 207.337 137.98H196.128Z" fill="#3549FB"/>
</g>
<defs>
<clipPath id="clip0">
<rect width="281.51" height="201" fill="white"/>
</clipPath>
</defs>
</svg>
